<svg width="19" height="19" viewBox="0 0 19 19" fill="none" xmlns="http://www.w3.org/2000/svg">
<path fill-rule="evenodd" clip-rule="evenodd" d="M18.5547 5C18.5547 2.23858 16.3161 0 13.5547 0L5 0C2.23858 0 -3.04542e-07 2.23858 -3.04542e-07 5V14C-3.04542e-07 16.7614 2.23858 19 5 19H13.5547C16.3161 19 18.5547 16.7614 18.5547 14V5ZM9.79273 5.49998C10.2069 5.49998 10.5427 5.1642 10.5427 4.74998C10.5427 4.33577 10.2069 3.99998 9.79273 3.99998L5.15405 3.99998C4.73984 3.99998 4.40405 4.33577 4.40405 4.74998C4.40405 5.1642 4.73984 5.49998 5.15405 5.49998L9.79273 5.49998ZM14.1506 9.50004C14.1506 9.91425 13.8148 10.25 13.4006 10.25L5.15405 10.25C4.73984 10.25 4.40405 9.91425 4.40405 9.50004C4.40405 9.08583 4.73984 8.75004 5.15405 8.75004L13.4006 8.75004C13.8148 8.75004 14.1506 9.08583 14.1506 9.50004ZM9.79273 15C10.2069 15 10.5427 14.6642 10.5427 14.25C10.5427 13.8358 10.2069 13.5 9.79273 13.5H5.15405C4.73984 13.5 4.40405 13.8358 4.40405 14.25C4.40405 14.6642 4.73984 15 5.15405 15H9.79273Z" fill="white"/>
</svg>
