<svg width="19" height="20" viewBox="0 0 19 20" fill="none" xmlns="http://www.w3.org/2000/svg">
<path fill-rule="evenodd" clip-rule="evenodd" d="M7.681 0.614369L1.181 5.5705C0.436767 6.13796 0 7.02024 0 7.95613V15.8437C0 18.0529 1.79086 19.8437 4 19.8437H5.33333C5.88562 19.8437 6.33333 19.396 6.33333 18.8437V16.2718C6.33333 15.1672 7.22876 14.2718 8.33333 14.2718H10.1389C11.2435 14.2718 12.1389 15.1672 12.1389 16.2718V18.8437C12.1389 19.396 12.5866 19.8437 13.1389 19.8437H15C17.2091 19.8437 19 18.0529 19 15.8437V13.1574V7.95613C19 7.02024 18.5632 6.13796 17.819 5.5705L11.319 0.614367C10.2447 -0.20479 8.75533 -0.204788 7.681 0.614369ZM7.61112 8.55098C7.19691 8.55098 6.86112 8.88677 6.86112 9.30098C6.86112 9.7152 7.19691 10.051 7.61112 10.051H11.3889C11.8031 10.051 12.1389 9.7152 12.1389 9.30098C12.1389 8.88677 11.8031 8.55098 11.3889 8.55098H7.61112Z" fill="white"/>
</svg>
