<svg width="20" height="19" viewBox="0 0 20 19" fill="none" xmlns="http://www.w3.org/2000/svg">
<path d="M18.8151 5.81876C18.3384 4.68327 17.6448 3.65119 16.773 2.78004C15.9038 1.90737 14.8714 1.21355 13.7342 0.737965C12.5693 0.248401 11.3177 -0.00254963 10.0537 1.95287e-05H10.0112C8.72556 0.00638113 7.48242 0.260845 6.31154 0.761291C5.18416 1.24175 4.16139 1.93681 3.3004 2.80761C2.43707 3.6768 1.75141 4.70527 1.28163 5.83573C0.793972 7.01127 0.546873 8.27228 0.554876 9.54454C0.561251 11.0162 0.914003 12.4772 1.57276 13.7835V17.0067C1.57276 17.5453 2.01051 17.9821 2.54814 17.9821H5.77391C7.08903 18.6444 8.54027 18.9928 10.0133 19H10.0579C11.3287 19 12.5591 18.754 13.7193 18.2727C14.8507 17.8027 15.8793 17.117 16.7475 16.2539C17.623 15.3866 18.3115 14.373 18.7939 13.2428C19.2933 12.0722 19.5483 10.8275 19.5546 9.54242C19.5589 8.25102 19.3081 6.99778 18.8151 5.81876ZM5.81216 10.5179C5.25116 10.5179 4.79428 10.062 4.79428 9.50001C4.79428 8.93807 5.25116 8.48215 5.81216 8.48215C6.37317 8.48215 6.83004 8.93807 6.83004 9.50001C6.83004 10.062 6.37529 10.5179 5.81216 10.5179ZM10.0537 10.5179C9.49269 10.5179 9.03581 10.062 9.03581 9.50001C9.03581 8.93807 9.49269 8.48215 10.0537 8.48215C10.6147 8.48215 11.0716 8.93807 11.0716 9.50001C11.0716 10.062 10.6147 10.5179 10.0537 10.5179ZM14.2952 10.5179C13.7342 10.5179 13.2773 10.062 13.2773 9.50001C13.2773 8.93807 13.7342 8.48215 14.2952 8.48215C14.8562 8.48215 15.3131 8.93807 15.3131 9.50001C15.3131 10.062 14.8562 10.5179 14.2952 10.5179Z" fill="white"/>
</svg>
