<svg width="513" height="512" viewBox="0 0 513 512" fill="none" xmlns="http://www.w3.org/2000/svg">
<g clip-path="url(#clip0_77_16)">
<rect x="0.349854" width="512" height="512" rx="40" fill="#2D2D2D"/>
<path d="M156.906 48.6519C156.906 48.6519 171.964 145.234 256.35 145.234C340.736 145.234 355.794 48.6519 355.794 48.6519" stroke="white" stroke-width="17.672" stroke-linecap="round"/>
<path d="M74.1156 296.276V201.988H86.627V296.276H74.1156ZM45.2489 210.429V199.953H115.494V210.429H45.2489ZM149.024 298.16C138.472 298.16 130.458 295.321 124.981 289.643C119.554 283.915 116.841 275.7 116.841 264.997V253.767C116.841 243.115 119.579 234.95 125.056 229.272C130.533 223.594 138.522 220.755 149.024 220.755C159.576 220.755 167.565 223.594 172.992 229.272C178.469 234.95 181.207 243.115 181.207 253.767V264.997C181.207 275.7 178.469 283.915 172.992 289.643C167.565 295.321 159.576 298.16 149.024 298.16ZM149.024 288.211C155.556 288.211 160.505 286.277 163.872 282.408C167.289 278.539 168.997 272.961 168.997 265.676V253.089C168.997 245.853 167.289 240.326 163.872 236.507C160.505 232.638 155.556 230.704 149.024 230.704C142.542 230.704 137.593 232.638 134.176 236.507C130.759 240.326 129.051 245.853 129.051 253.089V265.676C129.051 272.961 130.759 278.539 134.176 282.408C137.593 286.277 142.542 288.211 149.024 288.211ZM234.348 297.859C229.825 297.859 225.906 297.105 222.59 295.598C219.274 294.09 216.585 291.93 214.525 289.116C212.465 286.302 211.083 283.036 210.38 279.318H206.385L209.928 267.861C210.129 272.283 211.108 275.976 212.867 278.941C214.676 281.855 217.113 284.041 220.178 285.498C223.243 286.955 226.71 287.684 230.579 287.684C236.759 287.684 241.483 285.875 244.749 282.257C248.065 278.639 249.723 273.338 249.723 266.354V252.26C249.723 245.326 248.09 240.05 244.824 236.432C241.558 232.814 236.81 231.005 230.579 231.005C226.861 231.005 223.57 231.734 220.706 233.191C217.842 234.648 215.455 236.633 213.545 239.145C211.686 241.658 210.405 244.522 209.702 247.738L206.687 239.221H210.229C211.033 235.854 212.39 232.814 214.299 230.101C216.259 227.337 218.922 225.152 222.288 223.544C225.705 221.886 229.901 221.057 234.875 221.057C243.719 221.057 250.452 223.82 255.074 229.347C259.697 234.824 262.008 242.788 262.008 253.24V265.45C262.008 276.001 259.672 284.041 254.999 289.568C250.376 295.095 243.492 297.859 234.348 297.859ZM198.095 322.203V222.715H210.305L209.777 240.427L209.928 244.195V275.172L209.852 277.659L210.229 298.311V322.203H198.095Z" fill="white"/>
<path d="M78.3749 434.191C73.7749 434.191 69.5499 433.816 65.6999 433.066C61.8999 432.316 58.4999 431.391 55.4999 430.291C52.4999 429.191 49.9999 428.091 47.9999 426.991L46.7249 414.616C50.5749 416.916 55.0999 418.941 60.2999 420.691C65.5499 422.391 71.2499 423.241 77.3999 423.241C84.7999 423.241 90.2749 421.941 93.8249 419.341C97.3749 416.691 99.1499 412.741 99.1499 407.491V406.291C99.1499 402.841 98.4499 400.016 97.0499 397.816C95.6499 395.616 93.2749 393.766 89.9249 392.266C86.6249 390.766 82.1249 389.366 76.4249 388.066C69.2249 386.366 63.4499 384.366 59.0999 382.066C54.7999 379.716 51.6749 376.791 49.7249 373.291C47.8249 369.791 46.8749 365.441 46.8749 360.241V359.566C46.8749 351.716 49.4499 345.666 54.5999 341.416C59.7499 337.116 67.5499 334.966 77.9999 334.966C84.8499 334.966 90.6749 335.666 95.4749 337.066C100.325 338.466 104.275 340.016 107.325 341.716L108.45 353.116C104.9 351.016 100.75 349.241 95.9999 347.791C91.2999 346.291 85.8999 345.541 79.7999 345.541C74.9499 345.541 71.0249 346.116 68.0249 347.266C65.0249 348.416 62.8499 350.066 61.4999 352.216C60.1499 354.366 59.4749 356.966 59.4749 360.016V360.316C59.4749 363.416 60.1249 366.066 61.4249 368.266C62.7749 370.466 65.0999 372.366 68.3999 373.966C71.7499 375.566 76.4999 377.116 82.6499 378.616C89.6999 380.266 95.3499 382.166 99.5999 384.316C103.85 386.466 106.925 389.266 108.825 392.716C110.775 396.166 111.75 400.666 111.75 406.216V407.791C111.75 416.441 108.95 423.016 103.35 427.516C97.7999 431.966 89.4749 434.191 78.3749 434.191ZM128.551 432.466V359.266H140.701V432.466H128.551ZM134.626 347.266C132.126 347.266 130.251 346.616 129.001 345.316C127.801 343.966 127.201 342.141 127.201 339.841V339.466C127.201 337.116 127.801 335.291 129.001 333.991C130.251 332.691 132.126 332.041 134.626 332.041C137.126 332.041 139.001 332.691 140.251 333.991C141.501 335.291 142.126 337.116 142.126 339.466V339.841C142.126 342.191 141.501 344.016 140.251 345.316C139.001 346.616 137.126 347.266 134.626 347.266ZM183.428 434.116C177.528 434.116 172.378 433.491 167.978 432.241C163.578 430.941 159.928 429.541 157.028 428.041L155.903 416.791C159.553 418.691 163.553 420.341 167.903 421.741C172.303 423.141 177.278 423.841 182.828 423.841C188.478 423.841 192.728 422.941 195.578 421.141C198.428 419.341 199.853 416.666 199.853 413.116V412.291C199.853 409.991 199.303 408.091 198.203 406.591C197.153 405.091 195.228 403.766 192.428 402.616C189.628 401.466 185.653 400.316 180.503 399.166C174.353 397.816 169.503 396.241 165.953 394.441C162.403 392.591 159.853 390.316 158.303 387.616C156.803 384.916 156.053 381.616 156.053 377.716V377.041C156.053 370.641 158.278 365.791 162.728 362.491C167.178 359.191 173.878 357.541 182.828 357.541C188.578 357.541 193.553 358.191 197.753 359.491C202.003 360.791 205.478 362.241 208.178 363.841L209.303 374.116C206.053 372.216 202.328 370.641 198.128 369.391C193.928 368.141 189.203 367.516 183.953 367.516C180.153 367.516 177.078 367.916 174.728 368.716C172.378 369.466 170.678 370.566 169.628 372.016C168.578 373.416 168.053 375.116 168.053 377.116V377.716C168.053 379.916 168.578 381.791 169.628 383.341C170.678 384.841 172.553 386.166 175.253 387.316C178.003 388.416 181.803 389.491 186.653 390.541C192.903 391.791 197.853 393.291 201.503 395.041C205.203 396.791 207.853 399.016 209.453 401.716C211.053 404.366 211.853 407.791 211.853 411.991V413.266C211.853 420.166 209.453 425.366 204.653 428.866C199.853 432.366 192.778 434.116 183.428 434.116ZM252.949 433.966C247.299 433.966 242.749 433.116 239.299 431.416C235.849 429.716 233.349 427.141 231.799 423.691C230.249 420.241 229.474 415.941 229.474 410.791V364.591H241.474V409.366C241.474 414.166 242.574 417.716 244.774 420.016C246.974 422.266 250.674 423.391 255.874 423.391C258.824 423.391 261.649 423.066 264.349 422.416C267.099 421.766 269.674 420.841 272.074 419.641L270.949 430.066C268.599 431.266 265.849 432.216 262.699 432.916C259.549 433.616 256.299 433.966 252.949 433.966ZM217.474 370.066V360.316H271.324L270.199 370.066H217.474ZM229.549 361.516L229.474 340.966L241.699 339.391L241.174 361.516H229.549ZM315.668 434.116C304.518 434.116 296.118 431.391 290.468 425.941C284.818 420.491 281.993 412.691 281.993 402.541V389.491C281.993 379.191 284.618 371.266 289.868 365.716C295.118 360.116 302.793 357.316 312.893 357.316C319.693 357.316 325.368 358.591 329.918 361.141C334.468 363.641 337.893 367.216 340.193 371.866C342.493 376.516 343.643 382.066 343.643 388.516V391.216C343.643 392.816 343.568 394.416 343.418 396.016C343.318 397.616 343.168 399.191 342.968 400.741H331.793C331.893 398.341 331.943 396.066 331.943 393.916C331.993 391.766 332.018 389.791 332.018 387.991C332.018 383.541 331.293 379.791 329.843 376.741C328.443 373.641 326.318 371.291 323.468 369.691C320.668 368.041 317.143 367.216 312.893 367.216C306.593 367.216 301.868 369.041 298.718 372.691C295.568 376.341 293.993 381.566 293.993 388.366V395.341L294.068 396.841V403.816C294.068 406.866 294.518 409.616 295.418 412.066C296.318 414.516 297.718 416.641 299.618 418.441C301.568 420.191 304.018 421.541 306.968 422.491C309.968 423.391 313.518 423.841 317.618 423.841C322.368 423.841 326.793 423.216 330.893 421.966C334.993 420.716 338.843 419.016 342.443 416.866L341.318 427.366C338.068 429.416 334.293 431.066 329.993 432.316C325.693 433.516 320.918 434.116 315.668 434.116ZM288.368 400.741V391.591H340.418V400.741H288.368ZM451.196 432.466V386.641C451.196 382.791 450.696 379.466 449.696 376.666C448.746 373.816 447.146 371.616 444.896 370.066C442.696 368.516 439.721 367.741 435.971 367.741C432.421 367.741 429.346 368.466 426.746 369.916C424.146 371.366 422.046 373.316 420.446 375.766C418.846 378.166 417.721 380.916 417.071 384.016L415.196 375.391H416.696C417.496 372.241 418.846 369.316 420.746 366.616C422.646 363.916 425.221 361.741 428.471 360.091C431.721 358.441 435.746 357.616 440.546 357.616C445.996 357.616 450.371 358.691 453.671 360.841C457.021 362.991 459.471 366.141 461.021 370.291C462.571 374.391 463.346 379.391 463.346 385.291V432.466H451.196ZM359.771 432.466V359.266H371.921L371.396 376.816L371.921 377.566V432.466H359.771ZM405.521 432.466V386.641C405.521 382.791 405.021 379.466 404.021 376.666C403.071 373.816 401.496 371.616 399.296 370.066C397.096 368.516 394.121 367.741 390.371 367.741C386.771 367.741 383.671 368.466 381.071 369.916C378.471 371.366 376.371 373.341 374.771 375.841C373.171 378.291 372.046 381.091 371.396 384.241L369.146 375.616H371.846C372.596 372.316 373.896 369.316 375.746 366.616C377.596 363.866 380.096 361.691 383.246 360.091C386.446 358.441 390.321 357.616 394.871 357.616C401.621 357.616 406.746 359.366 410.246 362.866C413.796 366.366 416.021 371.466 416.921 378.166C417.171 379.166 417.346 380.266 417.446 381.466C417.546 382.616 417.596 383.766 417.596 384.916V432.466H405.521Z" fill="white"/>
<g filter="url(#filter0_d_77_16)">
<path d="M333.045 248.666V210.716H373.606M333.045 276.222V314.802H373.606M397.698 210.716H437.13V248.666M437.13 276.222V314.802H397.698" stroke="#3CE998" stroke-width="18.5464"/>
<rect x="349.415" y="227.601" width="18.5464" height="18.5464" fill="#3CE998"/>
<rect x="349.415" y="250.438" width="18.5464" height="23.187" fill="#3CE998"/>
<rect x="375.811" y="227.601" width="18.5464" height="17.1709" fill="#3CE998"/>
<rect x="402.213" y="227.601" width="18.5464" height="22.8368" fill="#3CE998"/>
<rect x="402.213" y="258.221" width="18.5464" height="17.5322" fill="#3CE998"/>
<rect x="396.51" y="279.319" width="24.2497" height="18.5976" fill="#3CE998"/>
<rect x="349.415" y="279.319" width="24.2497" height="18.5976" fill="#3CE998"/>
<rect x="379.089" y="279.319" width="11.9896" height="18.5976" fill="#3CE998"/>
<rect x="375.577" y="253.249" width="19.0199" height="19.0199" rx="9.50994" fill="#3CE998"/>
</g>
</g>
<defs>
<filter id="filter0_d_77_16" x="278.771" y="160.443" width="212.632" height="212.631" filterUnits="userSpaceOnUse" color-interpolation-filters="sRGB">
<feFlood flood-opacity="0" result="BackgroundImageFix"/>
<feColorMatrix in="SourceAlpha" type="matrix" values="0 0 0 0 0 0 0 0 0 0 0 0 0 0 0 0 0 0 127 0" result="hardAlpha"/>
<feOffset dy="4"/>
<feGaussianBlur stdDeviation="22.5"/>
<feComposite in2="hardAlpha" operator="out"/>
<feColorMatrix type="matrix" values="0 0 0 0 0.235294 0 0 0 0 0.913725 0 0 0 0 0.596078 0 0 0 0.66 0"/>
<feBlend mode="normal" in2="BackgroundImageFix" result="effect1_dropShadow_77_16"/>
<feBlend mode="normal" in="SourceGraphic" in2="effect1_dropShadow_77_16" result="shape"/>
</filter>
<clipPath id="clip0_77_16">
<rect x="0.349854" width="512" height="512" rx="40" fill="white"/>
</clipPath>
</defs>
</svg>
